<svg width="850.165625px" height="162.79999999999998px" xmlns="http://www.w3.org/2000/svg" viewBox="-175.0828125 -6.3999999999999915 850.165625 162.79999999999998" style="background: rgba(0, 0, 0, 0);" preserveAspectRatio="xMidYMid"><defs><filter id="editing-vr"><feFlood flood-color="#f00" flood-opacity="0.7" result="c1"></feFlood><feFlood flood-color="#00f" flood-opacity="0.7" result="c3"></feFlood><feComposite operator="in" in="c1" in2="SourceAlpha" result="text-c1"></feComposite><feComposite operator="in" in="c3" in2="SourceAlpha" result="text-c3"></feComposite><feOffset in="text-c1" dx="2" dy="-5" result="text1"></feOffset><feOffset in="text-c3" dx="-2" dy="5" result="text3"></feOffset><feBlend in="SourceGraphic" in2="text1" mode="multiply" result="text4"></feBlend><feBlend in="text4" in2="text3" mode="multiply"></feBlend></filter></defs><g filter="url(#editing-vr)"><g transform="translate(-55.740031242370605, 106.31000137329102)"><path d="M7.45-59.02L17.22-59.02L17.22-7.29L44.36-7.29L44.36 0L7.45 0L7.45-59.02ZM60.86-59.02L59.58-45.16L54.05-45.16L52.77-59.02L60.86-59.02ZM102.02-58.94L122.52 0L112.59 0L97.29-44.20L81.84 0L71.83 0L92.49-58.94L102.02-58.94ZM91.85-18.74L102.58-18.74L104.90-12.25L89.61-12.25L91.85-18.74ZM144.06-62.22L144.06-13.77L144.06-13.77Q144.06-11.05 144.78-9.49L144.78-9.49L144.78-9.49Q145.50-7.93 146.78-7.17L146.78-7.17L146.78-7.17Q148.06-6.41 149.71-6.17L149.71-6.17L149.71-6.17Q151.35-5.93 153.27-5.93L153.27-5.93L153.27 0L153.27 0Q152.23 0.16 151.11 0.24L151.11 0.24L151.11 0.24Q150.23 0.32 149.03 0.36L149.03 0.36L149.03 0.36Q147.82 0.40 146.62 0.40L146.62 0.40L146.62 0.40Q145.42 0.40 144.22 0.32L144.22 0.32L144.22 0.32Q143.02 0.24 142.06 0.08L142.06 0.08L142.06 0.08Q139.34-0.48 137.81-2.32L137.81-2.32L137.81-2.32Q136.29-4.16 135.49-6.45L135.49-6.45L135.49-6.45Q134.69-8.73 134.49-10.89L134.49-10.89L134.49-10.89Q134.29-13.05 134.29-14.25L134.29-14.25L134.29-15.21L134.29-62.22L144.06-62.22ZM184.50-38.04L184.50-45.56L184.50-45.56Q188.82-45.16 192.31-43.24L192.31-43.24L192.31-43.24Q195.79-41.32 198.27-38.28L198.27-38.28L198.27-38.28Q200.76-35.23 202.08-31.31L202.08-31.31L202.08-31.31Q203.40-27.39 203.40-23.14L203.40-23.14L203.40-23.14Q203.40-21.22 203.16-19.30L203.16-19.30L175.69-19.30L175.69-26.35L194.19-26.35L194.19-26.35Q194.19-28.43 193.51-30.35L193.51-30.35L193.51-30.35Q192.83-32.27 191.51-33.91L191.51-33.91L191.51-33.91Q190.19-35.55 188.42-36.68L188.42-36.68L188.42-36.68Q186.66-37.80 184.50-38.04L184.50-38.04ZM184.18-7.53L184.18-7.53L184.18-7.53Q185.06-7.53 186.38-7.73L186.38-7.73L186.38-7.73Q187.70-7.93 189.18-8.45L189.18-8.45L189.18-8.45Q190.67-8.97 192.15-9.77L192.15-9.77L192.15-9.77Q193.63-10.57 194.75-11.69L194.75-11.69L198.27-6.33L198.27-6.33Q195.63-3.04 192.11-1.36L192.11-1.36L192.11-1.36Q188.58 0.32 183.14 0.32L183.14 0.32L183.14 0.32Q178.73 0.32 174.89-1.48L174.89-1.48L174.89-1.48Q171.05-3.28 168.32-6.41L168.32-6.41L168.32-6.41Q165.60-9.53 164-13.69L164-13.69L164-13.69Q162.40-17.86 162.40-22.66L162.40-22.66L162.40-22.66Q162.40-27.23 163.88-31.31L163.88-31.31L163.88-31.31Q165.36-35.39 167.92-38.48L167.92-38.48L167.92-38.48Q170.49-41.56 173.89-43.48L173.89-43.48L173.89-43.48Q177.29-45.40 181.22-45.64L181.22-45.64L181.22-37.96L181.22-37.96Q178.25-37.40 176.33-35.55L176.33-35.55L176.33-35.55Q174.41-33.71 173.33-31.35L173.33-31.35L173.33-31.35Q172.25-28.99 171.81-26.51L171.81-26.51L171.81-26.51Q171.37-24.02 171.37-22.26L171.37-22.26L171.37-22.26Q171.37-19.14 172.13-16.46L172.13-16.46L172.13-16.46Q172.89-13.77 174.49-11.81L174.49-11.81L174.49-11.81Q176.09-9.85 178.45-8.69L178.45-8.69L178.45-8.69Q180.82-7.53 184.18-7.53ZM181.06-62.22L190.83-62.22L182.10-50.85L175.69-50.85L181.06-62.22ZM224.54-13.61L224.54-13.61L224.54-13.61Q224.54-10.01 226.02-8.25L226.02-8.25L226.02-8.25Q227.50-6.49 230.30-6.17L230.30-6.17L230.30 0.32L230.30 0.32Q229.98 0.40 229.26 0.40L229.26 0.40L229.26 0.40Q226.54 0.40 224.02-0.32L224.02-0.32L224.02-0.32Q221.50-1.04 219.57-2.64L219.57-2.64L219.57-2.64Q217.65-4.24 216.57-6.89L216.57-6.89L216.57-6.89Q215.49-9.53 215.49-13.37L215.49-13.37L215.49-13.37Q215.49-17.06 217.05-19.74L217.05-19.74L217.05-19.74Q218.61-22.42 221.06-24.14L221.06-24.14L221.06-24.14Q223.50-25.87 226.62-26.71L226.62-26.71L226.62-26.71Q229.74-27.55 232.95-27.55L232.95-27.55L236.47-27.55L236.47-21.86L234.71-21.86L234.71-21.86Q233.11-21.86 231.35-21.54L231.35-21.54L231.35-21.54Q229.58-21.22 228.06-20.34L228.06-20.34L228.06-20.34Q226.54-19.46 225.54-17.82L225.54-17.82L225.54-17.82Q224.54-16.18 224.54-13.61ZM249.44-14.01L249.44-13.37L249.44-13.37Q249.44-12.73 249.52-11.49L249.52-11.49L249.52-11.49Q249.60-10.25 249.84-8.97L249.84-8.97L249.84-8.97Q250.08-7.69 250.60-6.65L250.60-6.65L250.60-6.65Q251.13-5.61 252.01-5.29L252.01-5.29L249.44 0.08L249.44 0.08Q248.40 0.08 247.24-0.40L247.24-0.40L247.24-0.40Q246.08-0.88 245.00-1.76L245.00-1.76L245.00-1.76Q243.92-2.64 243.16-3.72L243.16-3.72L243.16-3.72Q242.40-4.80 242.00-6.09L242.00-6.09L242.00-6.09Q241.20-4.08 238.83-2.52L238.83-2.52L238.83-2.52Q236.47-0.96 233.59-0.24L233.59-0.24L233.59-6.33L233.59-6.33Q235.51-6.73 237.07-7.89L237.07-7.89L237.07-7.89Q238.63-9.05 239.75-10.65L239.75-10.65L239.75-27.55L239.75-27.55Q239.75-31.47 239.35-33.79L239.35-33.79L239.35-33.79Q238.95-36.12 237.99-37.20L237.99-37.20L237.99-37.20Q237.03-38.28 235.63-38.56L235.63-38.56L235.63-38.56Q234.23-38.84 232.31-38.84L232.31-38.84L232.31-38.84Q230.54-38.84 228.98-38.40L228.98-38.40L228.98-38.40Q227.42-37.96 226.10-37.36L226.10-37.36L226.10-37.36Q224.78-36.76 223.78-36.04L223.78-36.04L223.78-36.04Q222.78-35.31 222.30-34.91L222.30-34.91L218.69-40.44L218.69-40.44Q219.49-41.32 221.10-42.24L221.10-42.24L221.10-42.24Q222.70-43.16 224.78-43.88L224.78-43.88L224.78-43.88Q226.86-44.60 229.30-45.04L229.30-45.04L229.30-45.04Q231.75-45.48 234.39-45.48L234.39-45.48L234.39-45.48Q236.79-45.48 239.07-45.00L239.07-45.00L239.07-45.00Q241.36-44.52 243.24-43.40L243.24-43.40L243.24-43.40Q245.12-42.28 246.52-40.40L246.52-40.40L246.52-40.40Q247.92-38.52 248.48-35.71L248.48-35.71L248.48-35.71Q249.04-32.91 249.24-30.07L249.24-30.07L249.24-30.07Q249.44-27.23 249.44-24.42L249.44-24.42L249.44-14.01ZM277.63-38.60L277.63-13.69L277.63-13.69Q277.63-10.97 278.35-9.45L278.35-9.45L278.35-9.45Q279.07-7.93 280.39-7.13L280.39-7.13L280.39-7.13Q281.71-6.33 283.36-6.13L283.36-6.13L283.36-6.13Q285.00-5.93 286.84-5.93L286.84-5.93L286.84 0L286.84 0Q285.80 0.16 284.76 0.24L284.76 0.24L284.76 0.24Q283.88 0.32 282.64 0.36L282.64 0.36L282.64 0.36Q281.39 0.40 280.19 0.40L280.19 0.40L280.19 0.40Q278.99 0.40 277.75 0.32L277.75 0.32L277.75 0.32Q276.51 0.24 275.63 0.08L275.63 0.08L275.63 0.08Q272.91-0.40 271.38-2.28L271.38-2.28L271.38-2.28Q269.86-4.16 269.10-6.45L269.10-6.45L269.10-6.45Q268.34-8.73 268.14-10.89L268.14-10.89L268.14-10.89Q267.94-13.05 267.94-14.25L267.94-14.25L267.94-38.60L262.02-38.60L262.02-45.16L267.94-45.16L267.94-57.98L277.63-57.98L277.63-45.16L284.84-45.16L284.84-38.60L277.63-38.60ZM298.21-45.16L306.86-45.16L307.90-40.52L307.90-16.02L307.90-15.86L307.90 0L298.21 0L298.21-45.16ZM311.18-34.99L311.18-43.16L311.18-43.16Q313.19-44.28 315.99-44.88L315.99-44.88L315.99-44.88Q318.79-45.48 323.60-45.48L323.60-45.48L323.60-35.39L323.60-35.39Q321.35-36.04 318.15-36.12L318.15-36.12L318.15-36.12Q316.39-36.12 314.59-35.83L314.59-35.83L314.59-35.83Q312.79-35.55 311.18-34.99L311.18-34.99ZM355.15-37.88L355.15-45.40L355.15-45.40Q359.55-45.16 363.15-43.28L363.15-43.28L363.15-43.28Q366.76-41.40 369.20-38.32L369.20-38.32L369.20-38.32Q371.64-35.23 373.00-31.15L373.00-31.15L373.00-31.15Q374.37-27.07 374.37-22.42L374.37-22.42L374.37-22.42Q374.37-17.78 372.96-13.73L372.96-13.73L372.96-13.73Q371.56-9.69 369.08-6.69L369.08-6.69L369.08-6.69Q366.60-3.68 362.99-1.84L362.99-1.84L362.99-1.84Q359.39 0 355.15 0.32L355.15 0.32L355.15-7.37L355.15-7.37Q359.15-8.25 361.67-12.41L361.67-12.41L361.67-12.41Q364.20-16.58 364.20-22.42L364.20-22.42L364.20-22.42Q364.20-25.38 363.59-27.99L363.59-27.99L363.59-27.99Q362.99-30.59 361.79-32.67L361.79-32.67L361.79-32.67Q360.59-34.75 358.91-36.12L358.91-36.12L358.91-36.12Q357.23-37.48 355.15-37.88L355.15-37.88ZM332.80-22.58L332.80-22.58L332.80-22.58Q332.80-27.23 334.17-31.23L334.17-31.23L334.17-31.23Q335.53-35.23 338.05-38.24L338.05-38.24L338.05-38.24Q340.57-41.24 344.10-43.08L344.10-43.08L344.10-43.08Q347.62-44.92 351.86-45.32L351.86-45.32L351.86-37.88L351.86-37.88Q347.86-37.00 345.46-32.83L345.46-32.83L345.46-32.83Q343.05-28.67 343.05-22.82L343.05-22.82L343.05-22.82Q343.05-19.86 343.66-17.22L343.66-17.22L343.66-17.22Q344.26-14.57 345.38-12.49L345.38-12.49L345.38-12.49Q346.50-10.41 348.14-9.05L348.14-9.05L348.14-9.05Q349.78-7.69 351.86-7.37L351.86-7.37L351.86 0.32L351.86 0.32Q347.46 0 343.94-1.88L343.94-1.88L343.94-1.88Q340.41-3.76 337.93-6.81L337.93-6.81L337.93-6.81Q335.45-9.85 334.13-13.93L334.13-13.93L334.13-13.93Q332.80-18.02 332.80-22.58ZM386.94-45.16L395.59-45.16L396.63-40.60L396.63 0L386.94 0L386.94-45.16ZM420.57-40.20L420.57-40.20L420.57-40.20Q421.93-38.84 422.69-37.04L422.69-37.04L422.69-37.04Q423.45-35.23 423.81-33.27L423.81-33.27L423.81-33.27Q424.17-31.31 424.25-29.31L424.25-29.31L424.25-29.31Q424.33-27.31 424.33-25.38L424.33-25.38L424.33-1.60L424.33 0L414.56 0L414.56-24.58L414.56-24.58Q414.56-27.31 414.32-29.79L414.32-29.79L414.32-29.79Q414.08-32.27 413.20-34.19L413.20-34.19L413.20-34.19Q412.32-36.12 410.80-37.20L410.80-37.20L410.80-37.20Q409.28-38.28 406.56-38.28L406.56-38.28L406.56-38.28Q405.44-38.28 403.55-37.92L403.55-37.92L403.55-37.92Q401.67-37.56 399.91-36.76L399.91-36.76L399.91-42.92L399.91-42.92Q402.07-44.04 404.59-44.84L404.59-44.84L404.59-44.84Q407.12-45.64 409.52-45.64L409.52-45.64L409.52-45.64Q413.12-45.64 415.61-44.16L415.61-44.16L415.61-44.16Q418.09-42.68 420.57-40.20ZM458.93-37.88L458.93-45.40L458.93-45.40Q463.33-45.16 466.94-43.28L466.94-43.28L466.94-43.28Q470.54-41.40 472.98-38.32L472.98-38.32L472.98-38.32Q475.42-35.23 476.79-31.15L476.79-31.15L476.79-31.15Q478.15-27.07 478.15-22.42L478.15-22.42L478.15-22.42Q478.15-17.78 476.75-13.73L476.75-13.73L476.75-13.73Q475.34-9.69 472.86-6.69L472.86-6.69L472.86-6.69Q470.38-3.68 466.78-1.84L466.78-1.84L466.78-1.84Q463.17 0 458.93 0.32L458.93 0.32L458.93-7.37L458.93-7.37Q462.93-8.25 465.45-12.41L465.45-12.41L465.45-12.41Q467.98-16.58 467.98-22.42L467.98-22.42L467.98-22.42Q467.98-25.38 467.38-27.99L467.38-27.99L467.38-27.99Q466.78-30.59 465.57-32.67L465.57-32.67L465.57-32.67Q464.37-34.75 462.69-36.12L462.69-36.12L462.69-36.12Q461.01-37.48 458.93-37.88L458.93-37.88ZM436.59-22.58L436.59-22.58L436.59-22.58Q436.59-27.23 437.95-31.23L437.95-31.23L437.95-31.23Q439.31-35.23 441.83-38.24L441.83-38.24L441.83-38.24Q444.35-41.24 447.88-43.08L447.88-43.08L447.88-43.08Q451.40-44.92 455.64-45.32L455.64-45.32L455.64-37.88L455.64-37.88Q451.64-37.00 449.24-32.83L449.24-32.83L449.24-32.83Q446.84-28.67 446.84-22.82L446.84-22.82L446.84-22.82Q446.84-19.86 447.44-17.22L447.44-17.22L447.44-17.22Q448.04-14.57 449.16-12.49L449.16-12.49L449.16-12.49Q450.28-10.41 451.92-9.05L451.92-9.05L451.92-9.05Q453.56-7.69 455.64-7.37L455.64-7.37L455.64 0.32L455.64 0.32Q451.24 0 447.72-1.88L447.72-1.88L447.72-1.88Q444.19-3.76 441.71-6.81L441.71-6.81L441.71-6.81Q439.23-9.85 437.91-13.93L437.91-13.93L437.91-13.93Q436.59-18.02 436.59-22.58ZM490.72-45.16L499.45-45.16L500.49-40.52L500.49 0L490.72 0L490.72-45.16ZM537.24-45.64L537.24-45.64L537.24-45.64Q539.97-45.64 542.37-44.56L542.37-44.56L542.37-44.56Q544.77-43.48 546.57-41.48L546.57-41.48L546.57-41.48Q548.38-39.48 549.38-36.72L549.38-36.72L549.38-36.72Q550.38-33.95 550.38-30.75L550.38-30.75L550.38 0L540.77 0L540.77-24.58L540.77-24.58Q540.77-27.31 540.73-29.75L540.73-29.75L540.73-29.75Q540.69-32.19 540.21-34.11L540.21-34.11L540.21-34.11Q539.73-36.04 538.65-37.12L538.65-37.12L538.65-37.12Q537.56-38.20 535.32-38.20L535.32-38.20L535.32-38.20Q534.76-38.20 532.92-37.96L532.92-37.96L532.92-37.96Q531.08-37.72 528.68-36.60L528.68-36.60L528.68-42.92L528.68-42.92Q530.84-44.20 533.08-44.92L533.08-44.92L533.08-44.92Q535.32-45.64 537.24-45.64ZM523.39-39.48L523.39-39.48L523.39-39.48Q524.35-38.04 524.79-36.40L524.79-36.40L524.79-36.40Q525.23-34.75 525.35-32.99L525.35-32.99L525.35-32.99Q525.47-31.23 525.43-29.35L525.43-29.35L525.43-29.35Q525.39-27.47 525.39-25.38L525.39-25.38L525.39 0L515.70 0L515.70-24.58L515.70-24.58Q515.70-27.31 515.70-29.75L515.70-29.75L515.70-29.75Q515.70-32.19 515.22-34.11L515.22-34.11L515.22-34.11Q514.74-36.04 513.62-37.12L513.62-37.12L513.62-37.12Q512.50-38.20 510.34-38.20L510.34-38.20L510.34-38.20Q509.38-38.20 507.50-37.84L507.50-37.84L507.50-37.84Q505.61-37.48 503.77-36.60L503.77-36.60L503.77-42.92L503.77-42.92Q505.69-44.04 507.90-44.76L507.90-44.76L507.90-44.76Q510.10-45.48 512.26-45.48L512.26-45.48L512.26-45.48Q515.94-45.48 518.47-43.96L518.47-43.96L518.47-43.96Q520.99-42.44 523.39-39.48ZM585.13-38.04L585.13-45.56L585.13-45.56Q589.46-45.16 592.94-43.24L592.94-43.24L592.94-43.24Q596.42-41.32 598.90-38.28L598.90-38.28L598.90-38.28Q601.39-35.23 602.71-31.31L602.71-31.31L602.71-31.31Q604.03-27.39 604.03-23.14L604.03-23.14L604.03-23.14Q604.03-21.22 603.79-19.30L603.79-19.30L576.32-19.30L576.32-26.35L594.82-26.35L594.82-26.35Q594.82-28.43 594.14-30.35L594.14-30.35L594.14-30.35Q593.46-32.27 592.14-33.91L592.14-33.91L592.14-33.91Q590.82-35.55 589.05-36.68L589.05-36.68L589.05-36.68Q587.29-37.80 585.13-38.04L585.13-38.04ZM584.81-7.53L584.81-7.53L584.81-7.53Q585.69-7.53 587.01-7.73L587.01-7.73L587.01-7.73Q588.33-7.93 589.82-8.45L589.82-8.45L589.82-8.45Q591.30-8.97 592.78-9.77L592.78-9.77L592.78-9.77Q594.26-10.57 595.38-11.69L595.38-11.69L598.90-6.33L598.90-6.33Q596.26-3.04 592.74-1.36L592.74-1.36L592.74-1.36Q589.21 0.32 583.77 0.32L583.77 0.32L583.77 0.32Q579.37 0.32 575.52-1.48L575.52-1.48L575.52-1.48Q571.68-3.28 568.96-6.41L568.96-6.41L568.96-6.41Q566.23-9.53 564.63-13.69L564.63-13.69L564.63-13.69Q563.03-17.86 563.03-22.66L563.03-22.66L563.03-22.66Q563.03-27.23 564.51-31.31L564.51-31.31L564.51-31.31Q565.99-35.39 568.55-38.48L568.55-38.48L568.55-38.48Q571.12-41.56 574.52-43.48L574.52-43.48L574.52-43.48Q577.92-45.40 581.85-45.64L581.85-45.64L581.85-37.96L581.85-37.96Q578.88-37.40 576.96-35.55L576.96-35.55L576.96-35.55Q575.04-33.71 573.96-31.35L573.96-31.35L573.96-31.35Q572.88-28.99 572.44-26.51L572.44-26.51L572.44-26.51Q572.00-24.02 572.00-22.26L572.00-22.26L572.00-22.26Q572.00-19.14 572.76-16.46L572.76-16.46L572.76-16.46Q573.52-13.77 575.12-11.81L575.12-11.81L575.12-11.81Q576.72-9.85 579.08-8.69L579.08-8.69L579.08-8.69Q581.45-7.53 584.81-7.53Z" fill="#444"></path></g></g><style>text {
  font-size: 64px;
  font-family: Arial Black;
  dominant-baseline: central;
  text-anchor: middle;
}</style></svg>